# xmcd
#
# Track frame offsets: 
#        150
#        11355
#        32252
#        43550
#        59380
#        70222
#        79047
#        92315
#        106355
#        129035
#        138577
#        147875
#
# Disc length: 2154 seconds
#
# Revision: 7
# Processed by: cddbd v1.5.2PL0 Copyright (c) Steve Scherf et al.
# Submitted via: ExactAudioCopy v1.3
#
DISCID=8d08680c
DTITLE=Johnny Cash - Christmas with Johnny Cash
DYEAR=2004
DGENRE=Holiday
TTITLE0=I Heard the Bells On Christmas Day
TTITLE1=The Christmas Guest
TTITLE2=Hark the Herald Angels Sing
TTITLE3=The Gifts They Gave
TTITLE4=Blue Christmas
TTITLE5=Merry Christmas Mary
TTITLE6=Oh Come All Ye Faithful
TTITLE7=Away In a Manger
TTITLE8=The Christmas Spirit
TTITLE9=Joy to the World
TTITLE10=Silent Night
TTITLE11=Christmas As I Knew It
EXTD=
EXTT0=
EXTT1=
EXTT2=
EXTT3=
EXTT4=
EXTT5=
EXTT6=
EXTT7=
EXTT8=
EXTT9=
EXTT10=
EXTT11=
PLAYORDER=
